<svg preserveAspectRatio="none" overflow="visible" style="display: block;" width="88" height="73" viewBox="0 0 88 73" fill="none" xmlns="http://www.w3.org/2000/svg">
<g id="Brain symbol">
<path id="Original brain / refined terminal" fill-rule="evenodd" clip-rule="evenodd" d="M50.943 0.114907C48.543 0.332327 46.1172 0.863647 44.2407 2.37207C43.8036 2.72342 43.3963 3.12778 42.9563 3.33434C42.4385 3.5774 41.8754 3.54658 41.2705 3.346C40.9157 3.22835 40.5465 3.05231 40.1771 2.91322C39.5405 2.6735 38.9034 2.54357 38.261 2.42618C35.8886 1.99268 33.443 1.73024 31.0224 1.89226C28.808 2.04048 26.6145 2.54388 24.5422 3.34469C22.3734 4.1828 20.3374 5.34666 18.5106 6.78624C16.6531 8.25008 15.0119 9.99901 13.8533 12.0674C13.2624 13.1223 12.7971 14.2602 12.5123 15.4425C12.2571 16.5023 12.1469 17.5978 11.5118 18.2032C10.8018 18.88 9.436 18.9443 8.21836 19.2823C7.07718 19.5992 6.06615 20.1564 5.1598 20.8375C1.32822 23.7167 -0.632774 28.8093 0.182556 33.5284C0.570456 35.7736 1.58676 37.9343 2.93917 39.7299C3.65675 40.6826 4.46896 41.5326 5.54766 42.2451C6.09589 42.6072 6.71296 42.9338 6.88516 43.4128C7.03136 43.8195 6.85689 44.3361 6.72428 44.8496C6.42337 46.0147 6.33795 47.1638 6.53481 48.3347C6.72149 49.445 7.162 50.5749 7.82464 51.4842C8.99797 53.0943 10.8678 54.0129 12.8 54.4309C15.7666 55.0726 18.8802 54.5343 21.9382 54.5624C23.8634 54.5801 25.7666 54.8224 27.6494 55.1674C30.0196 55.6019 32.3576 56.1992 34.5692 57.3333C35.1015 57.6063 35.6265 57.9104 36.1954 57.8395C36.7014 57.7765 37.2421 57.4168 37.2862 57.0322C37.3305 56.6456 36.8731 56.2337 36.4041 55.9311C35.8673 55.5849 35.3153 55.3818 34.7589 55.1849C30.718 53.7546 26.4502 52.6484 22.1147 52.6453C19.2134 52.6432 16.2818 53.1351 13.4459 52.5347C11.4878 52.1202 9.57536 51.185 8.78404 49.3341C8.32153 48.2523 8.24201 46.8577 8.45203 45.6878C8.53671 45.2161 8.66847 44.7809 8.98822 44.6501C9.29304 44.5253 9.76871 44.6772 10.2268 44.8296C11.0297 45.0967 11.7786 45.3656 12.5363 45.4768C13.0914 45.5582 13.6513 45.555 14.2319 45.493C15.2874 45.3804 16.4111 45.0734 17.1324 44.3624C17.868 43.6374 18.1851 42.4923 17.9771 41.4256C17.7652 40.3386 17.0079 39.333 16.0547 38.8702C15.1192 38.4161 13.9951 38.4848 12.9467 38.718C11.8007 38.973 10.7452 39.4245 9.86982 40.3496C9.42314 40.8216 9.02335 41.417 8.58775 41.584C8.13315 41.7583 7.63954 41.466 7.1525 41.1292C6.21583 40.4815 5.30343 39.6693 4.54562 38.7311C3.11299 36.9575 2.23282 34.7337 2.01679 32.479C1.57617 27.8802 3.89843 23.1526 8.35171 21.2296C9.50276 20.7325 10.7962 20.4229 11.7313 20.5046C11.9656 20.525 12.1775 20.5701 12.3245 20.757C12.4536 20.921 12.5327 21.1942 12.6302 21.4546C12.8404 22.016 13.1358 22.5173 13.4905 22.9671C14.2237 23.8968 15.2105 24.6062 16.3794 24.8045C17.4804 24.9912 18.7431 24.7243 19.4589 23.9531C20.1458 23.2131 20.3294 22.0088 20.0517 21.0004C19.7669 19.9658 18.9968 19.1373 17.8668 18.8177C16.679 18.4817 15.0935 18.7079 14.4639 18.1816C13.8925 17.7039 14.1086 16.6062 14.4359 15.5761C15.9134 10.9259 19.6571 7.6538 23.925 5.73871C28.2577 3.79453 33.1306 3.2489 37.8049 4.32601C38.2456 4.42757 38.6845 4.54355 39.1395 4.64754C39.8418 4.80805 40.5823 4.94 40.9511 5.33773C41.5456 5.97871 41.1749 7.30999 41.2684 8.45438C41.3717 9.72035 42.0432 10.7576 43.0015 11.6026C43.8489 12.3497 44.9206 12.9464 45.9574 12.9179C48.0204 12.8612 49.9452 10.3292 48.8368 8.3054C48.4941 7.67972 47.8615 7.1026 47.4773 6.64334C47.229 6.34645 47.0844 6.0988 46.7031 5.86008C46.0997 5.4824 44.9035 5.12704 44.6861 4.75651C44.5103 4.45697 44.9742 4.14752 45.4512 3.87044C49.4893 1.5248 54.4697 1.49954 59.0807 2.49553C63.7969 3.51428 68.1267 5.60147 72.0893 8.2929C75.8593 10.8535 79.2971 13.9611 81.7338 17.8247C84.2583 21.8276 85.7083 26.6419 85.0874 31.2933C84.4451 36.1048 81.5869 40.7418 76.6382 42.4072C76.1473 42.5724 75.6357 42.7084 75.2916 42.5853C74.9041 42.4468 74.7288 41.9796 74.5648 41.4653C74.3682 40.8488 74.1878 40.1646 73.8773 39.5667C73.6234 39.0776 73.2824 38.6463 72.9103 38.2633C72.1518 37.4826 71.2636 36.9024 70.1906 36.7191C68.9928 36.5146 67.5646 36.8047 66.6331 37.569C65.0182 38.8939 64.8961 41.6439 66.1018 43.28C67.4288 45.0807 70.3641 45.5324 72.4806 45.3413C72.7325 45.3186 72.9728 45.2867 73.1182 45.381C73.2588 45.4721 73.3106 45.681 73.3098 45.9419C73.3085 46.3571 73.1738 46.9039 73.0777 47.3676C73.003 47.7276 72.9517 48.0375 72.8648 48.3407C72.5802 49.3333 71.9145 50.2535 71.145 51.0267C69.5595 52.6198 67.533 53.5885 65.3015 53.9177C62.9557 54.2638 60.3832 53.9032 58.6061 52.5702C56.7724 51.1949 55.7854 48.7845 54.4273 46.7123C53.2348 44.8929 51.7562 43.3342 50.0484 42.1752C47.9369 40.7422 45.4751 39.9203 42.8785 39.0781C40.5806 38.3329 38.1771 37.5718 36.9292 35.7755C35.8269 34.1888 35.626 31.7945 36.1316 29.7976C36.422 28.6508 36.9454 27.635 37.5033 26.6043C38.109 25.4852 38.7555 24.3485 39.6262 23.3756C39.7887 23.194 39.9591 23.0182 40.13 22.9155C40.3457 22.7859 40.5624 22.7729 40.7734 22.884C40.986 22.996 41.1928 23.2338 41.4 23.475C41.5877 23.6936 41.7756 23.915 41.9594 24.1339C42.7331 25.0554 43.433 25.9324 44.1251 26.8378C46.997 30.5953 49.7333 34.8423 53.8974 37.2608C55.8279 38.382 58.0654 39.1102 60.2557 38.8991C62.6082 38.6723 64.9064 37.362 66.4322 35.5515C66.9735 34.9092 67.4176 34.204 67.8114 33.4747C68.1596 32.8297 68.4685 32.166 69.0598 31.8787C69.4764 31.6763 70.0333 31.6608 70.5801 31.579C71.8263 31.3925 73.0204 30.8619 73.9306 30.0889C74.733 29.4074 75.3148 28.5376 75.6875 27.5687C76.5329 25.3703 76.3015 22.6616 75.2187 20.5053C74.2238 18.5239 72.5098 17.0088 70.6068 15.8905C66.5298 13.4947 61.5847 12.9198 56.8399 13.3318C52.0496 13.7478 47.4634 15.1699 43.3478 17.7262C42.8802 18.0166 42.4187 18.3217 41.9807 18.69C41.5187 19.0787 41.0828 19.5377 40.6159 19.5841C40.1246 19.6328 39.5988 19.2245 39.1038 18.8559C38.649 18.5172 38.2203 18.2121 37.7595 17.9178C36.7995 17.3047 35.7004 16.7384 34.5747 16.4694C33.4066 16.1903 32.2099 16.2313 31.0427 16.447C26.6022 17.2674 22.5883 20.615 20.9844 24.8883C20.1592 27.0867 19.9718 29.5301 20.6598 31.749C21.3604 34.0085 22.9686 36.0353 24.8995 37.4319C26.8369 38.8334 29.0991 39.6004 31.3382 40.5103C33.6473 41.4487 35.9319 42.539 37.8295 44.0273C38.2299 44.3413 38.613 44.673 38.3557 44.9499C38.2192 45.0969 37.9023 45.2284 37.6144 45.3654C37.2939 45.5179 37.0093 45.6771 36.7519 45.8664C35.8178 46.5534 35.2427 47.6371 35.167 48.7411C35.0116 51.0068 36.9599 53.3579 39.1839 53.5515C41.2601 53.7322 43.5765 52.0329 43.8524 49.9888C43.9273 49.4337 43.8517 48.8533 43.6353 48.2145C43.39 47.4903 42.9635 46.6911 43.1327 46.4533C43.2672 46.2644 43.7773 46.4295 44.286 46.6564C44.8294 46.8989 45.371 47.2118 45.8482 47.5723C49.6115 50.4155 49.3695 56.2197 46.1921 59.2192C44.2496 61.0529 41.21 61.8383 39.1806 63.4774C37.6776 64.6913 36.7287 66.3734 35.4494 68.0583C34.7265 69.0105 33.898 69.9635 34.3813 71.0498C34.6169 71.5793 35.1643 72.1405 35.5261 72.1399C35.8633 72.1393 36.0393 71.6507 36.2312 71.1663C37.068 69.0544 38.2071 67.0228 39.847 65.576C41.5599 64.0649 43.8191 63.1917 45.7842 61.8601C47.7163 60.5508 49.3641 58.7982 50.1118 56.6766C51.6594 52.2856 49.3516 46.3137 44.8222 44.8854C43.6636 44.52 42.3596 44.452 41.2739 44.0074C40.3223 43.6177 39.5384 42.9387 38.6908 42.3033C37.7042 41.5638 36.6312 40.8834 35.5378 40.2811C34.578 39.7524 33.6025 39.2838 32.5969 38.8701C30.4113 37.9708 28.0837 37.3306 26.159 35.9529C24.2685 34.5995 22.7669 32.5346 22.3293 30.2862C21.8876 28.0167 22.5298 25.5602 23.7929 23.5708C25.021 21.6367 26.8359 20.1441 28.9003 19.1446C29.9563 18.6333 31.0775 18.2511 32.2321 18.2261C33.4149 18.2004 34.6326 18.5496 35.7264 19.0245C36.3376 19.2899 36.91 19.5945 37.5029 19.9681C37.9124 20.2261 38.3316 20.517 38.5218 20.8282C39.0853 21.7501 37.6393 22.8503 36.728 23.9821C36.0153 24.8671 35.6297 25.7715 35.2457 26.7359C34.8283 27.7841 34.4129 28.9033 34.1683 30.0439C33.9095 31.2509 33.8421 32.482 34.0545 33.7038C34.2521 34.84 34.6917 35.9683 35.3433 36.8846C36.5378 38.5645 38.4449 39.5322 40.434 40.2787C42.8463 41.1842 45.3792 41.7645 47.5925 42.9233C49.3973 43.8682 50.9897 45.1979 52.2442 46.885C53.8281 49.015 54.8735 51.7147 56.7043 53.4577C59.8822 56.4831 65.4263 56.6255 69.4913 54.5974C71.6554 53.5178 73.4003 51.8229 74.4637 49.5897C74.6766 49.1427 74.8621 48.6742 74.9715 48.2095C75.0488 47.8813 75.0882 47.5551 75.1003 47.2077C75.112 46.8748 75.0988 46.5226 75.1079 46.1834C75.124 45.5851 75.2095 45.0274 75.5865 44.7144C75.8536 44.4927 76.2671 44.3938 76.6731 44.2784C79.1271 43.5813 81.3115 42.2821 82.995 40.4949C84.5991 38.7919 85.7485 36.6458 86.4158 34.3829C87.7683 29.7965 87.14 24.7307 85.2295 20.3677C83.3279 16.0253 80.1562 12.379 76.4968 9.28008C69.3502 3.22789 60.3441 -0.736743 50.943 0.114907ZM43.2254 6.61884C42.8033 7.36245 43.2727 8.82025 43.9038 9.74999C44.2257 10.2242 44.5896 10.561 45.1375 10.7397C45.6796 10.9166 46.4019 10.9387 46.788 10.6081C47.1735 10.2778 47.2237 9.59567 47.0126 9.07287C46.8008 8.54814 46.3258 8.18398 45.8823 7.83432C45.4142 7.4653 44.9812 7.11245 44.4364 6.74336C44.1962 6.58057 43.9342 6.41461 43.7183 6.37287C43.5793 6.34599 43.4594 6.37062 43.3665 6.44395C43.3104 6.48834 43.2641 6.55058 43.2254 6.61884ZM57.0492 15.2297C51.9121 15.6522 46.9385 17.2606 42.9005 20.4455C42.5957 20.6859 42.2962 20.9352 42.2515 21.213C42.1991 21.5386 42.4966 21.9032 42.7978 22.2623C43.4778 23.073 44.1769 23.8561 44.8361 24.6535C46.7581 26.9788 48.341 29.4262 50.2981 31.676C51.8084 33.4121 53.5415 35.0305 55.6187 35.9961C57.9436 37.0768 60.6995 37.3398 62.9909 36.0536C64.0807 35.4419 65.0654 34.4797 65.6582 33.4626C65.9277 33.0001 66.1162 32.5262 65.9049 32.2743C65.6643 31.9873 64.9049 31.9883 64.2034 31.9441C62.7385 31.8516 61.5258 31.5615 60.2916 31.129C59.2023 30.7472 58.0963 30.2545 57.129 29.602C56.1097 28.9143 55.2444 28.0492 54.8146 26.9009C54.37 25.7127 54.3917 24.2214 54.8903 23.0426C55.8581 20.7545 58.623 19.6441 60.9654 20.1614C63.3105 20.6793 65.2321 22.8288 66.64 24.8127C67.3291 25.7837 67.8951 26.715 68.1536 27.9906C68.2818 28.6234 68.3343 29.3408 68.6353 29.6771C68.919 29.9941 69.4236 29.9724 69.9685 29.8658C71.1868 29.6274 72.6071 28.9649 73.3714 28.0037C74.13 27.0498 74.2427 25.8016 74.1834 24.5215C74.127 23.3016 73.9144 22.0526 73.3652 21.004C72.7702 19.8681 71.7802 18.9674 70.7151 18.2218C66.7915 15.4753 61.849 14.8349 57.0492 15.2297ZM14.3689 20.4741C14.2311 20.71 14.5853 21.2145 14.9068 21.6372C15.2343 22.0677 15.5279 22.4133 15.949 22.6337C16.7047 23.0294 17.8709 23.0221 18.1764 22.3022C18.309 21.9897 18.2794 21.5429 18.0922 21.2489C17.8836 20.9211 17.4794 20.783 17.0575 20.6536C16.3537 20.4376 15.6007 20.2458 14.9438 20.2791C14.6886 20.292 14.448 20.339 14.3689 20.4741ZM58.5183 22.0593C57.4468 22.4415 56.5715 23.6445 56.4703 24.8143C56.3684 25.9912 57.0502 27.1346 57.9646 27.8848C58.9066 28.6576 60.0953 29.0132 61.3029 29.3719C62.6017 29.7578 63.9224 30.1473 65.2575 30.1713C65.7599 30.1803 66.2643 30.1376 66.4708 29.8586C66.6894 29.5632 66.574 29.003 66.4062 28.4695C66.0068 27.1998 65.3105 26.0819 64.5321 25.1066C63.8077 24.1989 63.0121 23.4147 61.9932 22.7919C60.9284 22.1411 59.6198 21.6665 58.5183 22.0593ZM68.5777 38.6503C67.2226 39.0938 66.7074 41.022 67.6082 42.12C68.0027 42.6009 68.6688 42.9225 69.2703 43.1095C69.6067 43.214 69.9228 43.2765 70.2661 43.3253C70.6599 43.3814 71.0896 43.4196 71.5196 43.4273C71.7673 43.4317 72.0151 43.4261 72.2288 43.3883C72.383 43.3611 72.5194 43.3171 72.6278 43.2509C72.8832 43.0947 72.9828 42.8145 72.9658 42.4833C72.9333 41.8529 72.478 41.0378 72.0624 40.3611C71.6786 39.736 71.3285 39.2289 70.7276 38.9041C70.1162 38.5736 69.2451 38.4319 68.5777 38.6503ZM13.308 40.6164C12.5665 40.8561 12.0188 41.1755 11.2759 41.6588C10.8212 41.9546 10.2932 42.3118 10.3149 42.6437C10.3209 42.7358 10.3692 42.8259 10.4574 42.892C10.6177 43.012 10.9097 43.0522 11.1763 43.1023C11.9617 43.2497 12.5253 43.4826 13.2401 43.545C14.4589 43.6514 16.1172 43.262 16.1346 42.172C16.1434 41.6192 15.7303 40.8863 15.1719 40.5873C14.6084 40.2856 13.897 40.4259 13.308 40.6164ZM40.0776 46.4466C38.9605 46.3679 37.3877 47.4044 37.1047 48.6399C36.8378 49.8046 37.7173 51.1461 38.859 51.5071C40.1003 51.8995 41.6516 51.133 41.9375 49.8493C42.1035 49.1043 41.8431 48.1849 41.4478 47.4907C41.2251 47.0996 40.9596 46.78 40.6416 46.6063C40.469 46.5121 40.2808 46.4609 40.0776 46.4466Z" fill="#5C9A93"/>
</g>
</svg>
